<mxfile host="app.diagrams.net" modified="2023-06-12T21:12:10.955Z" agent="Mozilla/5.0 (Windows NT 10.0; Win64; x64) AppleWebKit/537.36 (KHTML, like Gecko) Chrome/114.0.0.0 Safari/537.36" etag="9cVA-lFnRPxhNX4F4Fun" version="21.3.8" type="device">
  <diagram name="Página-1" id="LcXyndT0DvepZbhAEOWU">
    <mxGraphModel dx="2200" dy="1225" grid="1" gridSize="10" guides="1" tooltips="1" connect="1" arrows="1" fold="1" page="1" pageScale="1" pageWidth="827" pageHeight="1169" math="0" shadow="0">
      <root>
        <mxCell id="0" />
        <mxCell id="1" parent="0" />
        <mxCell id="FqN3htinn3vIO5tQjE8h-85" value="" style="group" vertex="1" connectable="0" parent="1">
          <mxGeometry x="10" y="20" width="838.46" height="150.00000000000003" as="geometry" />
        </mxCell>
        <mxCell id="FqN3htinn3vIO5tQjE8h-41" value="" style="rounded=0;whiteSpace=wrap;html=1;" vertex="1" parent="FqN3htinn3vIO5tQjE8h-85">
          <mxGeometry width="330" height="150" as="geometry" />
        </mxCell>
        <mxCell id="FqN3htinn3vIO5tQjE8h-42" value="" style="endArrow=none;html=1;rounded=0;entryX=0.289;entryY=-0.004;entryDx=0;entryDy=0;exitX=0.29;exitY=0.999;exitDx=0;exitDy=0;entryPerimeter=0;exitPerimeter=0;" edge="1" parent="FqN3htinn3vIO5tQjE8h-85" source="FqN3htinn3vIO5tQjE8h-41" target="FqN3htinn3vIO5tQjE8h-41">
          <mxGeometry width="50" height="50" relative="1" as="geometry">
            <mxPoint x="310" y="170" as="sourcePoint" />
            <mxPoint x="170" y="-10" as="targetPoint" />
          </mxGeometry>
        </mxCell>
        <mxCell id="FqN3htinn3vIO5tQjE8h-43" value="" style="endArrow=none;html=1;rounded=0;entryX=1.003;entryY=0.18;entryDx=0;entryDy=0;entryPerimeter=0;exitX=-0.001;exitY=0.178;exitDx=0;exitDy=0;exitPerimeter=0;" edge="1" parent="FqN3htinn3vIO5tQjE8h-85" source="FqN3htinn3vIO5tQjE8h-41" target="FqN3htinn3vIO5tQjE8h-41">
          <mxGeometry width="50" height="50" relative="1" as="geometry">
            <mxPoint x="310" y="170" as="sourcePoint" />
            <mxPoint x="360" y="120" as="targetPoint" />
          </mxGeometry>
        </mxCell>
        <mxCell id="FqN3htinn3vIO5tQjE8h-45" value="Actor" style="text;html=1;align=center;verticalAlign=middle;resizable=0;points=[];autosize=1;strokeColor=none;fillColor=none;" vertex="1" parent="FqN3htinn3vIO5tQjE8h-85">
          <mxGeometry x="20" width="50" height="30" as="geometry" />
        </mxCell>
        <mxCell id="FqN3htinn3vIO5tQjE8h-46" value="caso de uso" style="text;html=1;align=center;verticalAlign=middle;resizable=0;points=[];autosize=1;strokeColor=none;fillColor=none;" vertex="1" parent="FqN3htinn3vIO5tQjE8h-85">
          <mxGeometry y="29.999999999999993" width="90" height="30" as="geometry" />
        </mxCell>
        <mxCell id="FqN3htinn3vIO5tQjE8h-47" value="tipo" style="text;html=1;align=center;verticalAlign=middle;resizable=0;points=[];autosize=1;strokeColor=none;fillColor=none;" vertex="1" parent="FqN3htinn3vIO5tQjE8h-85">
          <mxGeometry x="25" y="70" width="40" height="30" as="geometry" />
        </mxCell>
        <mxCell id="FqN3htinn3vIO5tQjE8h-49" value="descripción" style="text;html=1;align=center;verticalAlign=middle;resizable=0;points=[];autosize=1;strokeColor=none;fillColor=none;" vertex="1" parent="FqN3htinn3vIO5tQjE8h-85">
          <mxGeometry x="5" y="110" width="80" height="30" as="geometry" />
        </mxCell>
        <mxCell id="FqN3htinn3vIO5tQjE8h-50" value="" style="endArrow=none;html=1;rounded=0;entryX=0.002;entryY=0.434;entryDx=0;entryDy=0;entryPerimeter=0;exitX=1.003;exitY=0.447;exitDx=0;exitDy=0;exitPerimeter=0;" edge="1" parent="FqN3htinn3vIO5tQjE8h-85" source="FqN3htinn3vIO5tQjE8h-41" target="FqN3htinn3vIO5tQjE8h-41">
          <mxGeometry width="50" height="50" relative="1" as="geometry">
            <mxPoint x="109.99999999999999" y="100" as="sourcePoint" />
            <mxPoint x="160" y="49.99999999999999" as="targetPoint" />
          </mxGeometry>
        </mxCell>
        <mxCell id="FqN3htinn3vIO5tQjE8h-51" value="" style="endArrow=none;html=1;rounded=0;exitX=0;exitY=0.697;exitDx=0;exitDy=0;exitPerimeter=0;entryX=0.999;entryY=0.717;entryDx=0;entryDy=0;entryPerimeter=0;" edge="1" parent="FqN3htinn3vIO5tQjE8h-85" source="FqN3htinn3vIO5tQjE8h-41" target="FqN3htinn3vIO5tQjE8h-41">
          <mxGeometry width="50" height="50" relative="1" as="geometry">
            <mxPoint x="190" y="100" as="sourcePoint" />
            <mxPoint x="240" y="49.99999999999999" as="targetPoint" />
          </mxGeometry>
        </mxCell>
        <mxCell id="FqN3htinn3vIO5tQjE8h-52" value="Empleado" style="text;html=1;align=center;verticalAlign=middle;resizable=0;points=[];autosize=1;strokeColor=none;fillColor=none;" vertex="1" parent="FqN3htinn3vIO5tQjE8h-85">
          <mxGeometry x="99.99999999999999" width="80" height="30" as="geometry" />
        </mxCell>
        <mxCell id="FqN3htinn3vIO5tQjE8h-53" value="login, registrar compra, generar ticket" style="text;html=1;align=center;verticalAlign=middle;resizable=0;points=[];autosize=1;strokeColor=none;fillColor=none;" vertex="1" parent="FqN3htinn3vIO5tQjE8h-85">
          <mxGeometry x="99.99999999999999" y="29.999999999999993" width="220" height="30" as="geometry" />
        </mxCell>
        <mxCell id="FqN3htinn3vIO5tQjE8h-54" value="Primario" style="text;html=1;align=center;verticalAlign=middle;resizable=0;points=[];autosize=1;strokeColor=none;fillColor=none;" vertex="1" parent="FqN3htinn3vIO5tQjE8h-85">
          <mxGeometry x="99.99999999999999" y="70" width="70" height="30" as="geometry" />
        </mxCell>
        <mxCell id="FqN3htinn3vIO5tQjE8h-55" value="Se encarga de registrar las ventas que &lt;br&gt;hace el quiosco" style="text;html=1;align=center;verticalAlign=middle;resizable=0;points=[];autosize=1;strokeColor=none;fillColor=none;" vertex="1" parent="FqN3htinn3vIO5tQjE8h-85">
          <mxGeometry x="99.99999999999999" y="105" width="230" height="40" as="geometry" />
        </mxCell>
        <mxCell id="FqN3htinn3vIO5tQjE8h-56" value="" style="rounded=0;whiteSpace=wrap;html=1;" vertex="1" parent="FqN3htinn3vIO5tQjE8h-85">
          <mxGeometry x="330.25" width="248.98" height="150" as="geometry" />
        </mxCell>
        <mxCell id="FqN3htinn3vIO5tQjE8h-58" value="" style="endArrow=none;html=1;rounded=0;entryX=1.003;entryY=0.18;entryDx=0;entryDy=0;entryPerimeter=0;exitX=-0.001;exitY=0.178;exitDx=0;exitDy=0;exitPerimeter=0;" edge="1" source="FqN3htinn3vIO5tQjE8h-56" target="FqN3htinn3vIO5tQjE8h-56" parent="FqN3htinn3vIO5tQjE8h-85">
          <mxGeometry width="50" height="50" relative="1" as="geometry">
            <mxPoint x="549.23" y="170.00000000000003" as="sourcePoint" />
            <mxPoint x="599.23" y="120.00000000000003" as="targetPoint" />
          </mxGeometry>
        </mxCell>
        <mxCell id="FqN3htinn3vIO5tQjE8h-63" value="" style="endArrow=none;html=1;rounded=0;entryX=0.004;entryY=0.449;entryDx=0;entryDy=0;entryPerimeter=0;exitX=1.003;exitY=0.447;exitDx=0;exitDy=0;exitPerimeter=0;" edge="1" source="FqN3htinn3vIO5tQjE8h-56" target="FqN3htinn3vIO5tQjE8h-56" parent="FqN3htinn3vIO5tQjE8h-85">
          <mxGeometry width="50" height="50" relative="1" as="geometry">
            <mxPoint x="349.23" y="100.00000000000003" as="sourcePoint" />
            <mxPoint x="399.23" y="50.00000000000002" as="targetPoint" />
          </mxGeometry>
        </mxCell>
        <mxCell id="FqN3htinn3vIO5tQjE8h-64" value="" style="endArrow=none;html=1;rounded=0;exitX=0.999;exitY=0.058;exitDx=0;exitDy=0;exitPerimeter=0;entryX=0.999;entryY=0.717;entryDx=0;entryDy=0;entryPerimeter=0;" edge="1" source="FqN3htinn3vIO5tQjE8h-55" target="FqN3htinn3vIO5tQjE8h-56" parent="FqN3htinn3vIO5tQjE8h-85">
          <mxGeometry width="50" height="50" relative="1" as="geometry">
            <mxPoint x="429.23" y="100.00000000000003" as="sourcePoint" />
            <mxPoint x="479.2300000000001" y="50.00000000000002" as="targetPoint" />
          </mxGeometry>
        </mxCell>
        <mxCell id="FqN3htinn3vIO5tQjE8h-65" value="Dueño" style="text;html=1;align=center;verticalAlign=middle;resizable=0;points=[];autosize=1;strokeColor=none;fillColor=none;" vertex="1" parent="FqN3htinn3vIO5tQjE8h-85">
          <mxGeometry x="349.23" width="60" height="30" as="geometry" />
        </mxCell>
        <mxCell id="FqN3htinn3vIO5tQjE8h-66" value="login, registrar empleados, insertar productos,&lt;br style=&quot;font-size: 9px;&quot;&gt;&amp;nbsp;eliminar productos, modificar productos, ver productos" style="text;html=1;align=left;verticalAlign=middle;resizable=0;points=[];autosize=1;strokeColor=none;fillColor=none;fontSize=9;horizontal=1;" vertex="1" parent="FqN3htinn3vIO5tQjE8h-85">
          <mxGeometry x="340.25" y="24.999999999999993" width="240" height="40" as="geometry" />
        </mxCell>
        <mxCell id="FqN3htinn3vIO5tQjE8h-67" value="Primario" style="text;html=1;align=center;verticalAlign=middle;resizable=0;points=[];autosize=1;strokeColor=none;fillColor=none;" vertex="1" parent="FqN3htinn3vIO5tQjE8h-85">
          <mxGeometry x="339.23" y="70.00000000000003" width="70" height="30" as="geometry" />
        </mxCell>
        <mxCell id="FqN3htinn3vIO5tQjE8h-68" value="Se encarga de administrar los registros de&lt;br style=&quot;font-size: 10px;&quot;&gt;&amp;nbsp;productos del local y agregar usuarios al sistema" style="text;html=1;align=left;verticalAlign=middle;resizable=0;points=[];autosize=1;strokeColor=none;fillColor=none;fontSize=10;" vertex="1" parent="FqN3htinn3vIO5tQjE8h-85">
          <mxGeometry x="340.25" y="105.00000000000003" width="240" height="40" as="geometry" />
        </mxCell>
        <mxCell id="FqN3htinn3vIO5tQjE8h-71" value="" style="rounded=0;whiteSpace=wrap;html=1;" vertex="1" parent="FqN3htinn3vIO5tQjE8h-85">
          <mxGeometry x="580.5" y="2.842170943040401e-14" width="247.96" height="150" as="geometry" />
        </mxCell>
        <mxCell id="FqN3htinn3vIO5tQjE8h-73" value="" style="endArrow=none;html=1;rounded=0;entryX=1.003;entryY=0.18;entryDx=0;entryDy=0;entryPerimeter=0;exitX=-0.001;exitY=0.178;exitDx=0;exitDy=0;exitPerimeter=0;" edge="1" source="FqN3htinn3vIO5tQjE8h-71" target="FqN3htinn3vIO5tQjE8h-71" parent="FqN3htinn3vIO5tQjE8h-85">
          <mxGeometry width="50" height="50" relative="1" as="geometry">
            <mxPoint x="798.46" y="170" as="sourcePoint" />
            <mxPoint x="848.46" y="120" as="targetPoint" />
          </mxGeometry>
        </mxCell>
        <mxCell id="FqN3htinn3vIO5tQjE8h-78" value="" style="endArrow=none;html=1;rounded=0;entryX=-0.001;entryY=0.449;entryDx=0;entryDy=0;entryPerimeter=0;exitX=1.003;exitY=0.447;exitDx=0;exitDy=0;exitPerimeter=0;" edge="1" source="FqN3htinn3vIO5tQjE8h-71" target="FqN3htinn3vIO5tQjE8h-71" parent="FqN3htinn3vIO5tQjE8h-85">
          <mxGeometry width="50" height="50" relative="1" as="geometry">
            <mxPoint x="598.46" y="100" as="sourcePoint" />
            <mxPoint x="648.46" y="50.00000000000002" as="targetPoint" />
          </mxGeometry>
        </mxCell>
        <mxCell id="FqN3htinn3vIO5tQjE8h-79" value="" style="endArrow=none;html=1;rounded=0;exitX=0.998;exitY=0.066;exitDx=0;exitDy=0;exitPerimeter=0;entryX=0.999;entryY=0.717;entryDx=0;entryDy=0;entryPerimeter=0;" edge="1" source="FqN3htinn3vIO5tQjE8h-68" target="FqN3htinn3vIO5tQjE8h-71" parent="FqN3htinn3vIO5tQjE8h-85">
          <mxGeometry width="50" height="50" relative="1" as="geometry">
            <mxPoint x="678.46" y="100" as="sourcePoint" />
            <mxPoint x="728.46" y="50.00000000000002" as="targetPoint" />
          </mxGeometry>
        </mxCell>
        <mxCell id="FqN3htinn3vIO5tQjE8h-80" value="Base de datos" style="text;html=1;align=center;verticalAlign=middle;resizable=0;points=[];autosize=1;strokeColor=none;fillColor=none;" vertex="1" parent="FqN3htinn3vIO5tQjE8h-85">
          <mxGeometry x="587.4399999999999" y="0.15000000000000568" width="100" height="30" as="geometry" />
        </mxCell>
        <mxCell id="FqN3htinn3vIO5tQjE8h-81" value="logins, ver insertar eliminar y modificar productos, insertar &lt;br&gt;usuarios e insertar ventas" style="text;html=1;align=left;verticalAlign=middle;resizable=0;points=[];autosize=1;strokeColor=none;fillColor=none;fontSize=9;horizontal=1;" vertex="1" parent="FqN3htinn3vIO5tQjE8h-85">
          <mxGeometry x="588.46" y="25.15" width="250" height="40" as="geometry" />
        </mxCell>
        <mxCell id="FqN3htinn3vIO5tQjE8h-82" value="Primario" style="text;html=1;align=center;verticalAlign=middle;resizable=0;points=[];autosize=1;strokeColor=none;fillColor=none;" vertex="1" parent="FqN3htinn3vIO5tQjE8h-85">
          <mxGeometry x="587.4399999999999" y="70.14999999999998" width="70" height="30" as="geometry" />
        </mxCell>
        <mxCell id="FqN3htinn3vIO5tQjE8h-83" value="Se encarga de almacenar todo lo necesario del&lt;br&gt;&amp;nbsp;sistema y permitir los accesos a estos datos" style="text;html=1;align=left;verticalAlign=middle;resizable=0;points=[];autosize=1;strokeColor=none;fillColor=none;fontSize=10;" vertex="1" parent="FqN3htinn3vIO5tQjE8h-85">
          <mxGeometry x="588.46" y="105.14999999999998" width="230" height="40" as="geometry" />
        </mxCell>
        <mxCell id="FqN3htinn3vIO5tQjE8h-87" value="" style="shape=table;startSize=0;container=1;collapsible=0;childLayout=tableLayout;" vertex="1" parent="1">
          <mxGeometry x="860" y="20" width="826" height="1030" as="geometry" />
        </mxCell>
        <mxCell id="FqN3htinn3vIO5tQjE8h-88" value="" style="shape=tableRow;horizontal=0;startSize=0;swimlaneHead=0;swimlaneBody=0;strokeColor=inherit;top=0;left=0;bottom=0;right=0;collapsible=0;dropTarget=0;fillColor=none;points=[[0,0.5],[1,0.5]];portConstraint=eastwest;" vertex="1" parent="FqN3htinn3vIO5tQjE8h-87">
          <mxGeometry width="826" height="130" as="geometry" />
        </mxCell>
        <mxCell id="FqN3htinn3vIO5tQjE8h-89" value="caso de uso" style="shape=partialRectangle;html=1;whiteSpace=wrap;connectable=0;strokeColor=inherit;overflow=hidden;fillColor=none;top=0;left=0;bottom=0;right=0;pointerEvents=1;" vertex="1" parent="FqN3htinn3vIO5tQjE8h-88">
          <mxGeometry width="118" height="130" as="geometry">
            <mxRectangle width="118" height="130" as="alternateBounds" />
          </mxGeometry>
        </mxCell>
        <mxCell id="FqN3htinn3vIO5tQjE8h-90" value="login" style="shape=partialRectangle;html=1;whiteSpace=wrap;connectable=0;strokeColor=inherit;overflow=hidden;fillColor=none;top=0;left=0;bottom=0;right=0;pointerEvents=1;" vertex="1" parent="FqN3htinn3vIO5tQjE8h-88">
          <mxGeometry x="118" width="118" height="130" as="geometry">
            <mxRectangle width="118" height="130" as="alternateBounds" />
          </mxGeometry>
        </mxCell>
        <mxCell id="FqN3htinn3vIO5tQjE8h-91" value="insertar producto" style="shape=partialRectangle;html=1;whiteSpace=wrap;connectable=0;strokeColor=inherit;overflow=hidden;fillColor=none;top=0;left=0;bottom=0;right=0;pointerEvents=1;" vertex="1" parent="FqN3htinn3vIO5tQjE8h-88">
          <mxGeometry x="236" width="118" height="130" as="geometry">
            <mxRectangle width="118" height="130" as="alternateBounds" />
          </mxGeometry>
        </mxCell>
        <mxCell id="FqN3htinn3vIO5tQjE8h-92" value="eliminar producto" style="shape=partialRectangle;html=1;whiteSpace=wrap;connectable=0;strokeColor=inherit;overflow=hidden;fillColor=none;top=0;left=0;bottom=0;right=0;pointerEvents=1;" vertex="1" parent="FqN3htinn3vIO5tQjE8h-88">
          <mxGeometry x="354" width="118" height="130" as="geometry">
            <mxRectangle width="118" height="130" as="alternateBounds" />
          </mxGeometry>
        </mxCell>
        <mxCell id="FqN3htinn3vIO5tQjE8h-93" value="modificar producto" style="shape=partialRectangle;html=1;whiteSpace=wrap;connectable=0;strokeColor=inherit;overflow=hidden;fillColor=none;top=0;left=0;bottom=0;right=0;pointerEvents=1;" vertex="1" parent="FqN3htinn3vIO5tQjE8h-88">
          <mxGeometry x="472" width="118" height="130" as="geometry">
            <mxRectangle width="118" height="130" as="alternateBounds" />
          </mxGeometry>
        </mxCell>
        <mxCell id="FqN3htinn3vIO5tQjE8h-148" value="Ver productos" style="shape=partialRectangle;html=1;whiteSpace=wrap;connectable=0;strokeColor=inherit;overflow=hidden;fillColor=none;top=0;left=0;bottom=0;right=0;pointerEvents=1;" vertex="1" parent="FqN3htinn3vIO5tQjE8h-88">
          <mxGeometry x="590" width="118" height="130" as="geometry">
            <mxRectangle width="118" height="130" as="alternateBounds" />
          </mxGeometry>
        </mxCell>
        <mxCell id="FqN3htinn3vIO5tQjE8h-156" value="registrar venta" style="shape=partialRectangle;html=1;whiteSpace=wrap;connectable=0;strokeColor=inherit;overflow=hidden;fillColor=none;top=0;left=0;bottom=0;right=0;pointerEvents=1;" vertex="1" parent="FqN3htinn3vIO5tQjE8h-88">
          <mxGeometry x="708" width="118" height="130" as="geometry">
            <mxRectangle width="118" height="130" as="alternateBounds" />
          </mxGeometry>
        </mxCell>
        <mxCell id="FqN3htinn3vIO5tQjE8h-100" value="" style="shape=tableRow;horizontal=0;startSize=0;swimlaneHead=0;swimlaneBody=0;strokeColor=inherit;top=0;left=0;bottom=0;right=0;collapsible=0;dropTarget=0;fillColor=none;points=[[0,0.5],[1,0.5]];portConstraint=eastwest;" vertex="1" parent="FqN3htinn3vIO5tQjE8h-87">
          <mxGeometry y="130" width="826" height="130" as="geometry" />
        </mxCell>
        <mxCell id="FqN3htinn3vIO5tQjE8h-101" value="actores" style="shape=partialRectangle;html=1;whiteSpace=wrap;connectable=0;strokeColor=inherit;overflow=hidden;fillColor=none;top=0;left=0;bottom=0;right=0;pointerEvents=1;" vertex="1" parent="FqN3htinn3vIO5tQjE8h-100">
          <mxGeometry width="118" height="130" as="geometry">
            <mxRectangle width="118" height="130" as="alternateBounds" />
          </mxGeometry>
        </mxCell>
        <mxCell id="FqN3htinn3vIO5tQjE8h-102" value="Empleado, Dueño, db" style="shape=partialRectangle;html=1;whiteSpace=wrap;connectable=0;strokeColor=inherit;overflow=hidden;fillColor=none;top=0;left=0;bottom=0;right=0;pointerEvents=1;" vertex="1" parent="FqN3htinn3vIO5tQjE8h-100">
          <mxGeometry x="118" width="118" height="130" as="geometry">
            <mxRectangle width="118" height="130" as="alternateBounds" />
          </mxGeometry>
        </mxCell>
        <mxCell id="FqN3htinn3vIO5tQjE8h-103" value="Dueño, db" style="shape=partialRectangle;html=1;whiteSpace=wrap;connectable=0;strokeColor=inherit;overflow=hidden;fillColor=none;top=0;left=0;bottom=0;right=0;pointerEvents=1;" vertex="1" parent="FqN3htinn3vIO5tQjE8h-100">
          <mxGeometry x="236" width="118" height="130" as="geometry">
            <mxRectangle width="118" height="130" as="alternateBounds" />
          </mxGeometry>
        </mxCell>
        <mxCell id="FqN3htinn3vIO5tQjE8h-104" value="Dueño, db" style="shape=partialRectangle;html=1;whiteSpace=wrap;connectable=0;strokeColor=inherit;overflow=hidden;fillColor=none;top=0;left=0;bottom=0;right=0;pointerEvents=1;" vertex="1" parent="FqN3htinn3vIO5tQjE8h-100">
          <mxGeometry x="354" width="118" height="130" as="geometry">
            <mxRectangle width="118" height="130" as="alternateBounds" />
          </mxGeometry>
        </mxCell>
        <mxCell id="FqN3htinn3vIO5tQjE8h-105" value="Dueño, db" style="shape=partialRectangle;html=1;whiteSpace=wrap;connectable=0;strokeColor=inherit;overflow=hidden;fillColor=none;top=0;left=0;bottom=0;right=0;pointerEvents=1;" vertex="1" parent="FqN3htinn3vIO5tQjE8h-100">
          <mxGeometry x="472" width="118" height="130" as="geometry">
            <mxRectangle width="118" height="130" as="alternateBounds" />
          </mxGeometry>
        </mxCell>
        <mxCell id="FqN3htinn3vIO5tQjE8h-149" value="Dueño, db" style="shape=partialRectangle;html=1;whiteSpace=wrap;connectable=0;strokeColor=inherit;overflow=hidden;fillColor=none;top=0;left=0;bottom=0;right=0;pointerEvents=1;" vertex="1" parent="FqN3htinn3vIO5tQjE8h-100">
          <mxGeometry x="590" width="118" height="130" as="geometry">
            <mxRectangle width="118" height="130" as="alternateBounds" />
          </mxGeometry>
        </mxCell>
        <mxCell id="FqN3htinn3vIO5tQjE8h-157" value="Empleado, db" style="shape=partialRectangle;html=1;whiteSpace=wrap;connectable=0;strokeColor=inherit;overflow=hidden;fillColor=none;top=0;left=0;bottom=0;right=0;pointerEvents=1;" vertex="1" parent="FqN3htinn3vIO5tQjE8h-100">
          <mxGeometry x="708" width="118" height="130" as="geometry">
            <mxRectangle width="118" height="130" as="alternateBounds" />
          </mxGeometry>
        </mxCell>
        <mxCell id="FqN3htinn3vIO5tQjE8h-106" style="shape=tableRow;horizontal=0;startSize=0;swimlaneHead=0;swimlaneBody=0;strokeColor=inherit;top=0;left=0;bottom=0;right=0;collapsible=0;dropTarget=0;fillColor=none;points=[[0,0.5],[1,0.5]];portConstraint=eastwest;" vertex="1" parent="FqN3htinn3vIO5tQjE8h-87">
          <mxGeometry y="260" width="826" height="128" as="geometry" />
        </mxCell>
        <mxCell id="FqN3htinn3vIO5tQjE8h-107" value="tipo" style="shape=partialRectangle;html=1;whiteSpace=wrap;connectable=0;strokeColor=inherit;overflow=hidden;fillColor=none;top=0;left=0;bottom=0;right=0;pointerEvents=1;" vertex="1" parent="FqN3htinn3vIO5tQjE8h-106">
          <mxGeometry width="118" height="128" as="geometry">
            <mxRectangle width="118" height="128" as="alternateBounds" />
          </mxGeometry>
        </mxCell>
        <mxCell id="FqN3htinn3vIO5tQjE8h-108" value="primario" style="shape=partialRectangle;html=1;whiteSpace=wrap;connectable=0;strokeColor=inherit;overflow=hidden;fillColor=none;top=0;left=0;bottom=0;right=0;pointerEvents=1;" vertex="1" parent="FqN3htinn3vIO5tQjE8h-106">
          <mxGeometry x="118" width="118" height="128" as="geometry">
            <mxRectangle width="118" height="128" as="alternateBounds" />
          </mxGeometry>
        </mxCell>
        <mxCell id="FqN3htinn3vIO5tQjE8h-109" value="primario" style="shape=partialRectangle;html=1;whiteSpace=wrap;connectable=0;strokeColor=inherit;overflow=hidden;fillColor=none;top=0;left=0;bottom=0;right=0;pointerEvents=1;" vertex="1" parent="FqN3htinn3vIO5tQjE8h-106">
          <mxGeometry x="236" width="118" height="128" as="geometry">
            <mxRectangle width="118" height="128" as="alternateBounds" />
          </mxGeometry>
        </mxCell>
        <mxCell id="FqN3htinn3vIO5tQjE8h-110" value="primario" style="shape=partialRectangle;html=1;whiteSpace=wrap;connectable=0;strokeColor=inherit;overflow=hidden;fillColor=none;top=0;left=0;bottom=0;right=0;pointerEvents=1;" vertex="1" parent="FqN3htinn3vIO5tQjE8h-106">
          <mxGeometry x="354" width="118" height="128" as="geometry">
            <mxRectangle width="118" height="128" as="alternateBounds" />
          </mxGeometry>
        </mxCell>
        <mxCell id="FqN3htinn3vIO5tQjE8h-111" value="primario" style="shape=partialRectangle;html=1;whiteSpace=wrap;connectable=0;strokeColor=inherit;overflow=hidden;fillColor=none;top=0;left=0;bottom=0;right=0;pointerEvents=1;" vertex="1" parent="FqN3htinn3vIO5tQjE8h-106">
          <mxGeometry x="472" width="118" height="128" as="geometry">
            <mxRectangle width="118" height="128" as="alternateBounds" />
          </mxGeometry>
        </mxCell>
        <mxCell id="FqN3htinn3vIO5tQjE8h-150" value="primario" style="shape=partialRectangle;html=1;whiteSpace=wrap;connectable=0;strokeColor=inherit;overflow=hidden;fillColor=none;top=0;left=0;bottom=0;right=0;pointerEvents=1;" vertex="1" parent="FqN3htinn3vIO5tQjE8h-106">
          <mxGeometry x="590" width="118" height="128" as="geometry">
            <mxRectangle width="118" height="128" as="alternateBounds" />
          </mxGeometry>
        </mxCell>
        <mxCell id="FqN3htinn3vIO5tQjE8h-158" value="primario" style="shape=partialRectangle;html=1;whiteSpace=wrap;connectable=0;strokeColor=inherit;overflow=hidden;fillColor=none;top=0;left=0;bottom=0;right=0;pointerEvents=1;" vertex="1" parent="FqN3htinn3vIO5tQjE8h-106">
          <mxGeometry x="708" width="118" height="128" as="geometry">
            <mxRectangle width="118" height="128" as="alternateBounds" />
          </mxGeometry>
        </mxCell>
        <mxCell id="FqN3htinn3vIO5tQjE8h-118" style="shape=tableRow;horizontal=0;startSize=0;swimlaneHead=0;swimlaneBody=0;strokeColor=inherit;top=0;left=0;bottom=0;right=0;collapsible=0;dropTarget=0;fillColor=none;points=[[0,0.5],[1,0.5]];portConstraint=eastwest;" vertex="1" parent="FqN3htinn3vIO5tQjE8h-87">
          <mxGeometry y="388" width="826" height="127" as="geometry" />
        </mxCell>
        <mxCell id="FqN3htinn3vIO5tQjE8h-119" value="proposito" style="shape=partialRectangle;html=1;whiteSpace=wrap;connectable=0;strokeColor=inherit;overflow=hidden;fillColor=none;top=0;left=0;bottom=0;right=0;pointerEvents=1;" vertex="1" parent="FqN3htinn3vIO5tQjE8h-118">
          <mxGeometry width="118" height="127" as="geometry">
            <mxRectangle width="118" height="127" as="alternateBounds" />
          </mxGeometry>
        </mxCell>
        <mxCell id="FqN3htinn3vIO5tQjE8h-120" value="Permitir el ingreso de un usuario al sistema a través de nombre y contraseña&amp;nbsp;" style="shape=partialRectangle;html=1;whiteSpace=wrap;connectable=0;strokeColor=inherit;overflow=hidden;fillColor=none;top=0;left=0;bottom=0;right=0;pointerEvents=1;" vertex="1" parent="FqN3htinn3vIO5tQjE8h-118">
          <mxGeometry x="118" width="118" height="127" as="geometry">
            <mxRectangle width="118" height="127" as="alternateBounds" />
          </mxGeometry>
        </mxCell>
        <mxCell id="FqN3htinn3vIO5tQjE8h-121" value="Ingresar un nuevo producto a la base de datos" style="shape=partialRectangle;html=1;whiteSpace=wrap;connectable=0;strokeColor=inherit;overflow=hidden;fillColor=none;top=0;left=0;bottom=0;right=0;pointerEvents=1;" vertex="1" parent="FqN3htinn3vIO5tQjE8h-118">
          <mxGeometry x="236" width="118" height="127" as="geometry">
            <mxRectangle width="118" height="127" as="alternateBounds" />
          </mxGeometry>
        </mxCell>
        <mxCell id="FqN3htinn3vIO5tQjE8h-122" value="eliminar un producto de la base de datos" style="shape=partialRectangle;html=1;whiteSpace=wrap;connectable=0;strokeColor=inherit;overflow=hidden;fillColor=none;top=0;left=0;bottom=0;right=0;pointerEvents=1;" vertex="1" parent="FqN3htinn3vIO5tQjE8h-118">
          <mxGeometry x="354" width="118" height="127" as="geometry">
            <mxRectangle width="118" height="127" as="alternateBounds" />
          </mxGeometry>
        </mxCell>
        <mxCell id="FqN3htinn3vIO5tQjE8h-123" value="modificar un product ya existente en la base de datos" style="shape=partialRectangle;html=1;whiteSpace=wrap;connectable=0;strokeColor=inherit;overflow=hidden;fillColor=none;top=0;left=0;bottom=0;right=0;pointerEvents=1;" vertex="1" parent="FqN3htinn3vIO5tQjE8h-118">
          <mxGeometry x="472" width="118" height="127" as="geometry">
            <mxRectangle width="118" height="127" as="alternateBounds" />
          </mxGeometry>
        </mxCell>
        <mxCell id="FqN3htinn3vIO5tQjE8h-151" value="Mostrar los productos almacenados dentro de la base de datos" style="shape=partialRectangle;html=1;whiteSpace=wrap;connectable=0;strokeColor=inherit;overflow=hidden;fillColor=none;top=0;left=0;bottom=0;right=0;pointerEvents=1;" vertex="1" parent="FqN3htinn3vIO5tQjE8h-118">
          <mxGeometry x="590" width="118" height="127" as="geometry">
            <mxRectangle width="118" height="127" as="alternateBounds" />
          </mxGeometry>
        </mxCell>
        <mxCell id="FqN3htinn3vIO5tQjE8h-159" value="registrar una venta en la base de datos" style="shape=partialRectangle;html=1;whiteSpace=wrap;connectable=0;strokeColor=inherit;overflow=hidden;fillColor=none;top=0;left=0;bottom=0;right=0;pointerEvents=1;" vertex="1" parent="FqN3htinn3vIO5tQjE8h-118">
          <mxGeometry x="708" width="118" height="127" as="geometry">
            <mxRectangle width="118" height="127" as="alternateBounds" />
          </mxGeometry>
        </mxCell>
        <mxCell id="FqN3htinn3vIO5tQjE8h-124" style="shape=tableRow;horizontal=0;startSize=0;swimlaneHead=0;swimlaneBody=0;strokeColor=inherit;top=0;left=0;bottom=0;right=0;collapsible=0;dropTarget=0;fillColor=none;points=[[0,0.5],[1,0.5]];portConstraint=eastwest;" vertex="1" parent="FqN3htinn3vIO5tQjE8h-87">
          <mxGeometry y="515" width="826" height="130" as="geometry" />
        </mxCell>
        <mxCell id="FqN3htinn3vIO5tQjE8h-125" value="resumen" style="shape=partialRectangle;html=1;whiteSpace=wrap;connectable=0;strokeColor=inherit;overflow=hidden;fillColor=none;top=0;left=0;bottom=0;right=0;pointerEvents=1;" vertex="1" parent="FqN3htinn3vIO5tQjE8h-124">
          <mxGeometry width="118" height="130" as="geometry">
            <mxRectangle width="118" height="130" as="alternateBounds" />
          </mxGeometry>
        </mxCell>
        <mxCell id="FqN3htinn3vIO5tQjE8h-126" value="Este caso de uso es utilizado por el empleado o dueño para poder ingresar al sistema" style="shape=partialRectangle;html=1;whiteSpace=wrap;connectable=0;strokeColor=inherit;overflow=hidden;fillColor=none;top=0;left=0;bottom=0;right=0;pointerEvents=1;" vertex="1" parent="FqN3htinn3vIO5tQjE8h-124">
          <mxGeometry x="118" width="118" height="130" as="geometry">
            <mxRectangle width="118" height="130" as="alternateBounds" />
          </mxGeometry>
        </mxCell>
        <mxCell id="FqN3htinn3vIO5tQjE8h-127" value="Es llamado por el dueño para agregar un nuevo producto a la base de datos del quiosco" style="shape=partialRectangle;html=1;whiteSpace=wrap;connectable=0;strokeColor=inherit;overflow=hidden;fillColor=none;top=0;left=0;bottom=0;right=0;pointerEvents=1;" vertex="1" parent="FqN3htinn3vIO5tQjE8h-124">
          <mxGeometry x="236" width="118" height="130" as="geometry">
            <mxRectangle width="118" height="130" as="alternateBounds" />
          </mxGeometry>
        </mxCell>
        <mxCell id="FqN3htinn3vIO5tQjE8h-128" value="Es llamado por el dueño para eliminar un producto de la base de datos&lt;span style=&quot;white-space: pre;&quot;&gt;&#x9;&lt;/span&gt;" style="shape=partialRectangle;html=1;whiteSpace=wrap;connectable=0;strokeColor=inherit;overflow=hidden;fillColor=none;top=0;left=0;bottom=0;right=0;pointerEvents=1;" vertex="1" parent="FqN3htinn3vIO5tQjE8h-124">
          <mxGeometry x="354" width="118" height="130" as="geometry">
            <mxRectangle width="118" height="130" as="alternateBounds" />
          </mxGeometry>
        </mxCell>
        <mxCell id="FqN3htinn3vIO5tQjE8h-129" value="Es llamado por el dueño para modificar los valores de un producto almacenado en la base de datos" style="shape=partialRectangle;html=1;whiteSpace=wrap;connectable=0;strokeColor=inherit;overflow=hidden;fillColor=none;top=0;left=0;bottom=0;right=0;pointerEvents=1;" vertex="1" parent="FqN3htinn3vIO5tQjE8h-124">
          <mxGeometry x="472" width="118" height="130" as="geometry">
            <mxRectangle width="118" height="130" as="alternateBounds" />
          </mxGeometry>
        </mxCell>
        <mxCell id="FqN3htinn3vIO5tQjE8h-152" value="Es llamado por el dueño para poder visualizar la lista de todos los productos que el quisco tiene registrados en su base de datos" style="shape=partialRectangle;html=1;whiteSpace=wrap;connectable=0;strokeColor=inherit;overflow=hidden;fillColor=none;top=0;left=0;bottom=0;right=0;pointerEvents=1;" vertex="1" parent="FqN3htinn3vIO5tQjE8h-124">
          <mxGeometry x="590" width="118" height="130" as="geometry">
            <mxRectangle width="118" height="130" as="alternateBounds" />
          </mxGeometry>
        </mxCell>
        <mxCell id="FqN3htinn3vIO5tQjE8h-160" value="es llamado por el empleado para registrar una venta realizada almacenando los productos de la venta y el total de esta" style="shape=partialRectangle;html=1;whiteSpace=wrap;connectable=0;strokeColor=inherit;overflow=hidden;fillColor=none;top=0;left=0;bottom=0;right=0;pointerEvents=1;" vertex="1" parent="FqN3htinn3vIO5tQjE8h-124">
          <mxGeometry x="708" width="118" height="130" as="geometry">
            <mxRectangle width="118" height="130" as="alternateBounds" />
          </mxGeometry>
        </mxCell>
        <mxCell id="FqN3htinn3vIO5tQjE8h-130" style="shape=tableRow;horizontal=0;startSize=0;swimlaneHead=0;swimlaneBody=0;strokeColor=inherit;top=0;left=0;bottom=0;right=0;collapsible=0;dropTarget=0;fillColor=none;points=[[0,0.5],[1,0.5]];portConstraint=eastwest;" vertex="1" parent="FqN3htinn3vIO5tQjE8h-87">
          <mxGeometry y="645" width="826" height="130" as="geometry" />
        </mxCell>
        <mxCell id="FqN3htinn3vIO5tQjE8h-131" value="flujo principal" style="shape=partialRectangle;html=1;whiteSpace=wrap;connectable=0;strokeColor=inherit;overflow=hidden;fillColor=none;top=0;left=0;bottom=0;right=0;pointerEvents=1;" vertex="1" parent="FqN3htinn3vIO5tQjE8h-130">
          <mxGeometry width="118" height="130" as="geometry">
            <mxRectangle width="118" height="130" as="alternateBounds" />
          </mxGeometry>
        </mxCell>
        <mxCell id="FqN3htinn3vIO5tQjE8h-132" value="Se le pide al usuario contraseña y nombre y valida si en la base de datos ya existe el usuario ya creado para que acceda al menu de opciones" style="shape=partialRectangle;html=1;whiteSpace=wrap;connectable=0;strokeColor=inherit;overflow=hidden;fillColor=none;top=0;left=0;bottom=0;right=0;pointerEvents=1;" vertex="1" parent="FqN3htinn3vIO5tQjE8h-130">
          <mxGeometry x="118" width="118" height="130" as="geometry">
            <mxRectangle width="118" height="130" as="alternateBounds" />
          </mxGeometry>
        </mxCell>
        <mxCell id="FqN3htinn3vIO5tQjE8h-133" value="Se le pide al dueño los datos necesarios de un producto (nombre, precio y descripcion) y estos se insertan en la base de datos" style="shape=partialRectangle;html=1;whiteSpace=wrap;connectable=0;strokeColor=inherit;overflow=hidden;fillColor=none;top=0;left=0;bottom=0;right=0;pointerEvents=1;" vertex="1" parent="FqN3htinn3vIO5tQjE8h-130">
          <mxGeometry x="236" width="118" height="130" as="geometry">
            <mxRectangle width="118" height="130" as="alternateBounds" />
          </mxGeometry>
        </mxCell>
        <mxCell id="FqN3htinn3vIO5tQjE8h-134" value="se pedira el id del producto, por el cual se identifica en la base de datos, y eliminara de la base de datosel producto que tenga dicho id" style="shape=partialRectangle;html=1;whiteSpace=wrap;connectable=0;strokeColor=inherit;overflow=hidden;fillColor=none;top=0;left=0;bottom=0;right=0;pointerEvents=1;" vertex="1" parent="FqN3htinn3vIO5tQjE8h-130">
          <mxGeometry x="354" width="118" height="130" as="geometry">
            <mxRectangle width="118" height="130" as="alternateBounds" />
          </mxGeometry>
        </mxCell>
        <mxCell id="FqN3htinn3vIO5tQjE8h-135" value="Se pedira ingresar los valores nuevos del producto y el id del producto a modificar y cambiara los antiguos valores por los recien ingresados" style="shape=partialRectangle;html=1;whiteSpace=wrap;connectable=0;strokeColor=inherit;overflow=hidden;fillColor=none;top=0;left=0;bottom=0;right=0;pointerEvents=1;" vertex="1" parent="FqN3htinn3vIO5tQjE8h-130">
          <mxGeometry x="472" width="118" height="130" as="geometry">
            <mxRectangle width="118" height="130" as="alternateBounds" />
          </mxGeometry>
        </mxCell>
        <mxCell id="FqN3htinn3vIO5tQjE8h-153" value="Al llamar a esta opcion se mostrara en forma de lista todos los productos almacenados en la base de datos y sus valores.&amp;nbsp;" style="shape=partialRectangle;html=1;whiteSpace=wrap;connectable=0;strokeColor=inherit;overflow=hidden;fillColor=none;top=0;left=0;bottom=0;right=0;pointerEvents=1;" vertex="1" parent="FqN3htinn3vIO5tQjE8h-130">
          <mxGeometry x="590" width="118" height="130" as="geometry">
            <mxRectangle width="118" height="130" as="alternateBounds" />
          </mxGeometry>
        </mxCell>
        <mxCell id="FqN3htinn3vIO5tQjE8h-161" value="Se pediran los codigos de los productos de la venta hasta que se decida parar de ingresar valores y entonces se emitira un ticket con los productos y el valor total" style="shape=partialRectangle;html=1;whiteSpace=wrap;connectable=0;strokeColor=inherit;overflow=hidden;fillColor=none;top=0;left=0;bottom=0;right=0;pointerEvents=1;" vertex="1" parent="FqN3htinn3vIO5tQjE8h-130">
          <mxGeometry x="708" width="118" height="130" as="geometry">
            <mxRectangle width="118" height="130" as="alternateBounds" />
          </mxGeometry>
        </mxCell>
        <mxCell id="FqN3htinn3vIO5tQjE8h-136" style="shape=tableRow;horizontal=0;startSize=0;swimlaneHead=0;swimlaneBody=0;strokeColor=inherit;top=0;left=0;bottom=0;right=0;collapsible=0;dropTarget=0;fillColor=none;points=[[0,0.5],[1,0.5]];portConstraint=eastwest;" vertex="1" parent="FqN3htinn3vIO5tQjE8h-87">
          <mxGeometry y="775" width="826" height="128" as="geometry" />
        </mxCell>
        <mxCell id="FqN3htinn3vIO5tQjE8h-137" value="subflujo" style="shape=partialRectangle;html=1;whiteSpace=wrap;connectable=0;strokeColor=inherit;overflow=hidden;fillColor=none;top=0;left=0;bottom=0;right=0;pointerEvents=1;" vertex="1" parent="FqN3htinn3vIO5tQjE8h-136">
          <mxGeometry width="118" height="128" as="geometry">
            <mxRectangle width="118" height="128" as="alternateBounds" />
          </mxGeometry>
        </mxCell>
        <mxCell id="FqN3htinn3vIO5tQjE8h-138" value="-" style="shape=partialRectangle;html=1;whiteSpace=wrap;connectable=0;strokeColor=inherit;overflow=hidden;fillColor=none;top=0;left=0;bottom=0;right=0;pointerEvents=1;" vertex="1" parent="FqN3htinn3vIO5tQjE8h-136">
          <mxGeometry x="118" width="118" height="128" as="geometry">
            <mxRectangle width="118" height="128" as="alternateBounds" />
          </mxGeometry>
        </mxCell>
        <mxCell id="FqN3htinn3vIO5tQjE8h-139" value="-" style="shape=partialRectangle;html=1;whiteSpace=wrap;connectable=0;strokeColor=inherit;overflow=hidden;fillColor=none;top=0;left=0;bottom=0;right=0;pointerEvents=1;" vertex="1" parent="FqN3htinn3vIO5tQjE8h-136">
          <mxGeometry x="236" width="118" height="128" as="geometry">
            <mxRectangle width="118" height="128" as="alternateBounds" />
          </mxGeometry>
        </mxCell>
        <mxCell id="FqN3htinn3vIO5tQjE8h-140" value="-" style="shape=partialRectangle;html=1;whiteSpace=wrap;connectable=0;strokeColor=inherit;overflow=hidden;fillColor=none;top=0;left=0;bottom=0;right=0;pointerEvents=1;" vertex="1" parent="FqN3htinn3vIO5tQjE8h-136">
          <mxGeometry x="354" width="118" height="128" as="geometry">
            <mxRectangle width="118" height="128" as="alternateBounds" />
          </mxGeometry>
        </mxCell>
        <mxCell id="FqN3htinn3vIO5tQjE8h-141" value="-" style="shape=partialRectangle;html=1;whiteSpace=wrap;connectable=0;strokeColor=inherit;overflow=hidden;fillColor=none;top=0;left=0;bottom=0;right=0;pointerEvents=1;" vertex="1" parent="FqN3htinn3vIO5tQjE8h-136">
          <mxGeometry x="472" width="118" height="128" as="geometry">
            <mxRectangle width="118" height="128" as="alternateBounds" />
          </mxGeometry>
        </mxCell>
        <mxCell id="FqN3htinn3vIO5tQjE8h-154" value="-" style="shape=partialRectangle;html=1;whiteSpace=wrap;connectable=0;strokeColor=inherit;overflow=hidden;fillColor=none;top=0;left=0;bottom=0;right=0;pointerEvents=1;" vertex="1" parent="FqN3htinn3vIO5tQjE8h-136">
          <mxGeometry x="590" width="118" height="128" as="geometry">
            <mxRectangle width="118" height="128" as="alternateBounds" />
          </mxGeometry>
        </mxCell>
        <mxCell id="FqN3htinn3vIO5tQjE8h-162" value="-" style="shape=partialRectangle;html=1;whiteSpace=wrap;connectable=0;strokeColor=inherit;overflow=hidden;fillColor=none;top=0;left=0;bottom=0;right=0;pointerEvents=1;" vertex="1" parent="FqN3htinn3vIO5tQjE8h-136">
          <mxGeometry x="708" width="118" height="128" as="geometry">
            <mxRectangle width="118" height="128" as="alternateBounds" />
          </mxGeometry>
        </mxCell>
        <mxCell id="FqN3htinn3vIO5tQjE8h-142" style="shape=tableRow;horizontal=0;startSize=0;swimlaneHead=0;swimlaneBody=0;strokeColor=inherit;top=0;left=0;bottom=0;right=0;collapsible=0;dropTarget=0;fillColor=none;points=[[0,0.5],[1,0.5]];portConstraint=eastwest;" vertex="1" parent="FqN3htinn3vIO5tQjE8h-87">
          <mxGeometry y="903" width="826" height="127" as="geometry" />
        </mxCell>
        <mxCell id="FqN3htinn3vIO5tQjE8h-143" value="excepciones" style="shape=partialRectangle;html=1;whiteSpace=wrap;connectable=0;strokeColor=inherit;overflow=hidden;fillColor=none;top=0;left=0;bottom=0;right=0;pointerEvents=1;" vertex="1" parent="FqN3htinn3vIO5tQjE8h-142">
          <mxGeometry width="118" height="127" as="geometry">
            <mxRectangle width="118" height="127" as="alternateBounds" />
          </mxGeometry>
        </mxCell>
        <mxCell id="FqN3htinn3vIO5tQjE8h-144" value="Si el usuario ingresado no existe se impedirá el acceso a la sistema y se pide devuelta los datos&amp;nbsp;" style="shape=partialRectangle;html=1;whiteSpace=wrap;connectable=0;strokeColor=inherit;overflow=hidden;fillColor=none;top=0;left=0;bottom=0;right=0;pointerEvents=1;" vertex="1" parent="FqN3htinn3vIO5tQjE8h-142">
          <mxGeometry x="118" width="118" height="127" as="geometry">
            <mxRectangle width="118" height="127" as="alternateBounds" />
          </mxGeometry>
        </mxCell>
        <mxCell id="FqN3htinn3vIO5tQjE8h-145" value="Si falta algun valor de los necesarios para la insercion del nuevo producto emergera un mensaje de error y se volvera al menu de opciones" style="shape=partialRectangle;html=1;whiteSpace=wrap;connectable=0;strokeColor=inherit;overflow=hidden;fillColor=none;top=0;left=0;bottom=0;right=0;pointerEvents=1;" vertex="1" parent="FqN3htinn3vIO5tQjE8h-142">
          <mxGeometry x="236" width="118" height="127" as="geometry">
            <mxRectangle width="118" height="127" as="alternateBounds" />
          </mxGeometry>
        </mxCell>
        <mxCell id="FqN3htinn3vIO5tQjE8h-146" value="Si el id no existe dentro de la base de datos se lanzara un mensaje de error y se volvera al menu de opciones" style="shape=partialRectangle;html=1;whiteSpace=wrap;connectable=0;strokeColor=inherit;overflow=hidden;fillColor=none;top=0;left=0;bottom=0;right=0;pointerEvents=1;" vertex="1" parent="FqN3htinn3vIO5tQjE8h-142">
          <mxGeometry x="354" width="118" height="127" as="geometry">
            <mxRectangle width="118" height="127" as="alternateBounds" />
          </mxGeometry>
        </mxCell>
        <mxCell id="FqN3htinn3vIO5tQjE8h-147" value="Si el id no existe dentro de la base de datos o hay valores faltantes se lanzara un mensaje de error y se volvera al menu de opciones" style="shape=partialRectangle;html=1;whiteSpace=wrap;connectable=0;strokeColor=inherit;overflow=hidden;fillColor=none;top=0;left=0;bottom=0;right=0;pointerEvents=1;" vertex="1" parent="FqN3htinn3vIO5tQjE8h-142">
          <mxGeometry x="472" width="118" height="127" as="geometry">
            <mxRectangle width="118" height="127" as="alternateBounds" />
          </mxGeometry>
        </mxCell>
        <mxCell id="FqN3htinn3vIO5tQjE8h-155" value="-" style="shape=partialRectangle;html=1;whiteSpace=wrap;connectable=0;strokeColor=inherit;overflow=hidden;fillColor=none;top=0;left=0;bottom=0;right=0;pointerEvents=1;" vertex="1" parent="FqN3htinn3vIO5tQjE8h-142">
          <mxGeometry x="590" width="118" height="127" as="geometry">
            <mxRectangle width="118" height="127" as="alternateBounds" />
          </mxGeometry>
        </mxCell>
        <mxCell id="FqN3htinn3vIO5tQjE8h-163" value="En caso de ingresar un codigo de producto invalido se emitira un mensaje por pantalla y se seguira esperando al ingreso de mas productos" style="shape=partialRectangle;html=1;whiteSpace=wrap;connectable=0;strokeColor=inherit;overflow=hidden;fillColor=none;top=0;left=0;bottom=0;right=0;pointerEvents=1;" vertex="1" parent="FqN3htinn3vIO5tQjE8h-142">
          <mxGeometry x="708" width="118" height="127" as="geometry">
            <mxRectangle width="118" height="127" as="alternateBounds" />
          </mxGeometry>
        </mxCell>
      </root>
    </mxGraphModel>
  </diagram>
</mxfile>
